<svg xmlns="http://www.w3.org/2000/svg" viewBox="0 0 760 326" role="img" aria-labelledby="t d">
  <title id="t">Encoding and decoding are inverse operations</title>
  <desc id="d">A project of files flows through webr_repl_project into one URL and back out through decode_webr_link as the identical files, a lossless round trip with no server and no network.</desc>
  <style>.s{font-family:system-ui,-apple-system,"Segoe UI",Roboto,"Helvetica Neue",Arial,sans-serif}.m{font-family:ui-monospace,SFMono-Regular,"SF Mono",Menlo,Consolas,"Liberation Mono",monospace}.lbl{letter-spacing:.10em;font-weight:700}.fn{fill:#60a5fa}.str{fill:#34d399}.num{fill:#fbbf24}.com{fill:#64748b}.key{fill:#c4b5fd}.ink{fill:#e2e8f0}.body{fill:#cbd5e1}.muted{fill:#94a3b8}.faint{fill:#64748b}.card{fill:#1e293b}.cardline{fill:#334155}.rail{fill:#475569}.accent{fill:#4C9AFF}.accent_soft{fill:#12315c}.hollow{fill:#475569}.chrome{fill:#172033}.pane{fill:#0b1220}.panehdr{fill:#131c2e}.base{fill:#94a3b8}.base_bg{fill:#273244}.ver{fill:#5eead4}.ver_bg{fill:#12332e}.pan{fill:#c4b5fd}.pan_bg{fill:#2e2450}.frag{fill:#4C9AFF}.frag_bg{fill:#12315c}.flag{fill:#fbbf24}.flag_bg{fill:#3d2f10}.shadow{fill:#000000}</style>
  <defs><marker id="a" markerWidth="11" markerHeight="11" refX="6.6" refY="4" orient="auto"><path d="M2 1.4 L6.6 4 L2 6.6" fill="none" stroke="#4C9AFF" stroke-width="2" stroke-linecap="round" stroke-linejoin="round"/></marker></defs>
  <text class="s lbl muted" x="43" y="81" font-size="10.5">YOUR FILES</text>
  <text class="s lbl muted" x="467" y="81" font-size="10.5">ONE URL</text>
  <rect x="40" y="96" width="256" height="184" rx="16" fill="#1e293b" stroke="#334155"/>
  <rect x="56" y="106.0" width="224" height="48" rx="9" fill="#0b1220"/>
  <path d="M68 117.0 h7 l4 4 v9 h-11 z" fill="#1e293b" stroke="#64748b" stroke-width="1.2" stroke-linejoin="round"/>
  <path d="M75 117.0 v4 h4" fill="none" stroke="#64748b" stroke-width="1.2" stroke-linejoin="round"/>
  <text class="m ink" x="88" y="126.0" font-size="12.5" font-weight="600">main.R</text>
  <text class="m" x="88" y="144.0" font-size="11.5" xml:space="preserve"><tspan class="fn">source</tspan><tspan class="ink">(</tspan><tspan class="str">"utils.R"</tspan><tspan class="ink">)</tspan></text>
  <rect x="56" y="164.0" width="224" height="48" rx="9" fill="#0b1220"/>
  <path d="M68 175.0 h7 l4 4 v9 h-11 z" fill="#1e293b" stroke="#64748b" stroke-width="1.2" stroke-linejoin="round"/>
  <path d="M75 175.0 v4 h4" fill="none" stroke="#64748b" stroke-width="1.2" stroke-linejoin="round"/>
  <text class="m ink" x="88" y="184.0" font-size="12.5" font-weight="600">utils.R</text>
  <text class="m" x="88" y="202.0" font-size="11.5" xml:space="preserve"><tspan class="ink">run </tspan><tspan class="ink">&lt;- </tspan><tspan class="key">function</tspan><tspan class="ink">() </tspan><tspan class="num">42</tspan></text>
  <rect x="56" y="222.0" width="224" height="48" rx="9" fill="#0b1220"/>
  <path d="M68 233.0 h7 l4 4 v9 h-11 z" fill="#1e293b" stroke="#64748b" stroke-width="1.2" stroke-linejoin="round"/>
  <path d="M75 233.0 v4 h4" fill="none" stroke="#64748b" stroke-width="1.2" stroke-linejoin="round"/>
  <text class="m ink" x="88" y="242.0" font-size="12.5" font-weight="600">README.md</text>
  <text class="m" x="88" y="260.0" font-size="11.5" xml:space="preserve"><tspan class="com"># Analysis</tspan></text>
  <rect x="464" y="96" width="256" height="184" rx="16" fill="#1e293b" stroke="#334155"/>
  <rect x="482" y="120" width="220" height="52" rx="12" fill="#0b1220"/>
  <rect x="496" y="134" width="9" height="7" rx="1.6" fill="none" stroke="#64748b" stroke-width="1.2"/>
  <path d="M497.7 134 v-2 a2.9 2.9 0 0 1 5.6 0 v2" fill="none" stroke="#64748b" stroke-width="1.2"/>
  <text class="m muted" x="514" y="140" font-size="11">webr.r-wasm.org/latest/</text>
  <text class="m" x="498" y="161" font-size="12" xml:space="preserve"><tspan class="frag">#code=eJyLrlbKS8xN…</tspan><tspan class="flag">&amp;mz</tspan></text>
  <path d="M484 196 h216" stroke="#334155" stroke-dasharray="1.5 4.5" stroke-linecap="round"/>
  <rect x="545.65" y="186.5" width="93" height="19" rx="9.5" fill="#12315c"/>
  <text class="s frag" x="592.0" y="200.0" font-size="10" font-weight="600" text-anchor="middle">gzip + base64</text>
  <text class="s lbl faint" x="484" y="230" font-size="9.5">THE SAME FILES, INSIDE</text>
  <rect x="484" y="240" width="51" height="19" rx="9.5" fill="#273244"/>
  <text class="s base" x="509.7" y="253.5" font-size="10" font-weight="600" text-anchor="middle">main.R</text>
  <rect x="542.4" y="240" width="57" height="19" rx="9.5" fill="#273244"/>
  <text class="s base" x="571.05" y="253.5" font-size="10" font-weight="600" text-anchor="middle">utils.R</text>
  <rect x="606.7" y="240" width="69" height="19" rx="9.5" fill="#273244"/>
  <text class="s base" x="641.25" y="253.5" font-size="10" font-weight="600" text-anchor="middle">README.md</text>
  <path d="M302 175.0 Q380.0 150.0 458 175.0" fill="none" stroke="#4C9AFF" stroke-width="2" stroke-linecap="round" marker-end="url(#a)"/>
  <text class="s lbl muted" x="380.0" y="126.0" font-size="10" text-anchor="middle">ENCODE</text>
  <text class="m accent" x="380.0" y="142.0" font-size="11.5" text-anchor="middle">webr_repl_project()</text>
  <path d="M458 201.0 Q380.0 226.0 302 201.0" fill="none" stroke="#4C9AFF" stroke-width="2" stroke-linecap="round" marker-end="url(#a)"/>
  <text class="s lbl muted" x="380.0" y="244.0" font-size="10" text-anchor="middle">DECODE</text>
  <text class="m accent" x="380.0" y="260.0" font-size="11.5" text-anchor="middle">decode_webr_link()</text>
  <text class="s faint" x="43" y="312" font-size="12">The files you put in are the files you get back, byte for byte, with no server and no network.</text>
</svg>
